<?xml version="1.0" standalone="no"?><!DOCTYPE svg PUBLIC "-//W3C//DTD SVG 1.1//EN" "http://www.w3.org/Graphics/SVG/1.1/DTD/svg11.dtd"><svg t="1727103656353" class="icon" viewBox="0 0 1024 1024" version="1.1" xmlns="http://www.w3.org/2000/svg" p-id="1396" xmlns:xlink="http://www.w3.org/1999/xlink" width="256" height="256"><path d="M646.4 672m-268.8 0a268.8 268.8 0 1 0 537.6 0 268.8 268.8 0 1 0-537.6 0Z" fill="#FFD84A" p-id="1397"></path><path d="M515.84 940.8h-70.4c-199.68 0-360.96-162.56-360.96-360.96V275.2c0-120.32 97.28-217.6 217.6-217.6h358.4c120.32 0 217.6 97.28 217.6 217.6v304.64c-1.28 198.4-162.56 360.96-362.24 360.96z m-215.04-832c-92.16 0-166.4 74.24-166.4 166.4v304.64c0 171.52 139.52 309.76 309.76 309.76h70.4c171.52 0 309.76-139.52 309.76-309.76V275.2c0-92.16-74.24-166.4-166.4-166.4H300.8z" p-id="1398"></path><path d="M576 396.8H384c-14.08 0-25.6-11.52-25.6-25.6s11.52-25.6 25.6-25.6h192c14.08 0 25.6 11.52 25.6 25.6s-11.52 25.6-25.6 25.6zM576 549.12H384c-14.08 0-25.6-11.52-25.6-25.6s11.52-25.6 25.6-25.6h192c14.08 0 25.6 11.52 25.6 25.6s-11.52 25.6-25.6 25.6z" p-id="1399"></path></svg>