<?xml version="1.0" standalone="no"?><!DOCTYPE svg PUBLIC "-//W3C//DTD SVG 1.1//EN" "http://www.w3.org/Graphics/SVG/1.1/DTD/svg11.dtd"><svg t="1726891030031" class="icon" viewBox="0 0 1024 1024" version="1.1" xmlns="http://www.w3.org/2000/svg" p-id="17210" xmlns:xlink="http://www.w3.org/1999/xlink" width="256" height="256"><path d="M656.64 637.44m-288 0a288 288 0 1 0 576 0 288 288 0 1 0-576 0Z" fill="#FFD84A" p-id="17211"></path><path d="M488.96 917.76c-225.28 0-409.6-184.32-409.6-409.6s184.32-409.6 409.6-409.6 409.6 184.32 409.6 409.6-184.32 409.6-409.6 409.6z m0-768c-197.12 0-358.4 161.28-358.4 358.4s161.28 358.4 358.4 358.4 358.4-161.28 358.4-358.4-161.28-358.4-358.4-358.4z" p-id="17212"></path><path d="M488.96 657.92c-17.92 0-34.56-6.4-47.36-19.2L358.4 555.52c-25.6-25.6-25.6-69.12 0-94.72l83.2-83.2c25.6-25.6 69.12-25.6 94.72 0l83.2 83.2c12.8 12.8 19.2 29.44 19.2 47.36s-6.4 34.56-19.2 47.36l-83.2 83.2c-12.8 11.52-29.44 19.2-47.36 19.2z m0-253.44c-5.12 0-10.24 2.56-15.36 6.4l-83.2 83.2c-7.68 7.68-7.68 21.76 0 29.44l83.2 83.2c7.68 7.68 21.76 7.68 29.44 0l83.2-83.2c3.84-3.84 6.4-8.96 6.4-15.36 0-5.12-2.56-10.24-6.4-15.36L503.04 409.6c-3.84-2.56-8.96-5.12-14.08-5.12z" p-id="17213"></path></svg>