<?xml version="1.0" standalone="no"?><!DOCTYPE svg PUBLIC "-//W3C//DTD SVG 1.1//EN" "http://www.w3.org/Graphics/SVG/1.1/DTD/svg11.dtd"><svg t="1723620044594" class="icon" viewBox="0 0 1024 1024" version="1.1" xmlns="http://www.w3.org/2000/svg" p-id="11985" xmlns:xlink="http://www.w3.org/1999/xlink" width="200" height="200"><path d="M730.7264 955.648c-17.4592 0-35.0208-4.1984-51.2-12.7488l-141.1584-74.24a58.4704 58.4704 0 0 0-54.5792 0l-141.1584 74.24c-37.2736 19.6096-81.6128 16.384-115.6608-8.3456-34.0992-24.7808-50.7904-65.9456-43.6736-107.4176l26.9824-157.184c3.2768-19.0464-3.0208-38.4512-16.8448-51.9168L79.104 506.6752c-30.1568-29.3888-40.8064-72.5504-27.8016-112.5888 13.0048-40.0384 47.0016-68.7104 88.6784-74.752l157.8496-22.9376c19.0976-2.7648 35.6352-14.7456 44.1344-32.1024l70.6048-143.0016c18.6368-37.7856 56.3712-61.2352 98.5088-61.2352s79.872 23.4496 98.5088 61.2352l70.6048 143.0016c8.5504 17.3056 25.0368 29.2864 44.1856 32.1024l157.8496 22.9376c41.6768 6.0416 75.6736 34.7136 88.6784 74.752 13.0048 40.0384 2.3552 83.2-27.8016 112.5888l-114.2272 111.3088a58.5728 58.5728 0 0 0-16.8448 51.9168l26.9824 157.184c7.1168 41.5232-9.6256 82.688-43.6736 107.4176-19.4048 14.0288-41.9328 21.1456-64.6144 21.1456z m-219.648-144.896c17.5616 0 35.1232 4.1984 51.0976 12.5952l141.1584 74.24c20.224 10.6496 43.3152 8.96 61.7472-4.4544 18.4832-13.4144 27.1872-34.8672 23.3472-57.344l-26.9824-157.184a109.85472 109.85472 0 0 1 31.5904-97.2288L907.264 470.016c16.3328-15.9232 21.9136-38.4 14.848-60.1088-7.0656-21.7088-24.7296-36.6592-47.36-39.936l-157.8496-22.9376a109.73696 109.73696 0 0 1-82.688-60.1088l-70.6048-143.0016c-10.0864-20.48-29.7472-32.7168-52.5824-32.7168s-42.496 12.2368-52.5824 32.7168L387.8912 286.9248a109.94176 109.94176 0 0 1-82.688 60.1088l-157.8496 22.9376c-22.5792 3.2768-40.2944 18.2272-47.36 39.936s-1.4848 44.1856 14.848 60.1088l114.2272 111.3088a109.85472 109.85472 0 0 1 31.5904 97.2288l-26.9824 157.184c-3.84 22.4768 4.864 43.9296 23.3472 57.344 18.4832 13.4144 41.5744 15.104 61.7472 4.4544l141.1584-74.24c16.0256-8.3456 33.5872-12.544 51.1488-12.544z" fill="#191919" p-id="11986"></path><path d="M537.7024 358.656l37.6832 76.3392c4.352 8.7552 12.6976 14.848 22.3744 16.2816l84.2752 12.2368c24.3712 3.5328 34.1504 33.536 16.4864 50.7392l-60.9792 59.4432a29.75232 29.75232 0 0 0-8.5504 26.3168l14.3872 83.9168c4.1472 24.2688-21.3504 42.8032-43.1616 31.3344l-75.3664-39.6288a29.7728 29.7728 0 0 0-27.6992 0l-75.3664 39.6288c-21.8112 11.4688-47.3088-7.0656-43.1616-31.3344l14.3872-83.9168c1.6384-9.6256-1.536-19.5072-8.5504-26.3168L323.584 514.2016c-17.664-17.2032-7.936-47.2064 16.4864-50.7392l84.2752-12.2368a29.56288 29.56288 0 0 0 22.3744-16.2816l37.6832-76.3392c10.9056-22.0672 42.3936-22.0672 53.2992 0.0512z" fill="#FACC31" p-id="11987"></path><path d="M614.144 744.2944c-8.8064 0-17.6128-2.0992-25.8048-6.4l-75.3664-39.6288a3.9424 3.9424 0 0 0-3.84 0l-75.3664 39.6288a55.0144 55.0144 0 0 1-58.2656-4.1984c-17.152-12.4928-25.6-33.2288-22.016-54.1184l14.3872-83.9168a4.28544 4.28544 0 0 0-1.1776-3.6864l-60.9792-59.4432a54.86592 54.86592 0 0 1-13.9776-56.7296c6.5536-20.1728 23.6544-34.6112 44.6464-37.6832l84.2752-12.2368c1.3312-0.2048 2.5088-1.024 3.1232-2.2528l37.6832-76.3392c9.3696-19.0464 28.416-30.8224 49.6128-30.8224s40.2432 11.8272 49.6128 30.8224l37.6832 76.3392c0.6144 1.2288 1.792 2.048 3.1232 2.2528l84.224 12.2368c20.992 3.072 38.0928 17.5104 44.6464 37.6832 6.5536 20.1728 1.1776 41.9328-13.9776 56.7296l-60.9792 59.4432a4.0448 4.0448 0 0 0-1.1776 3.6352l14.3872 83.9168c3.584 20.8896-4.864 41.6768-22.016 54.1184a54.96832 54.96832 0 0 1-32.4608 10.6496zM511.0784 367.6672c-2.56 0-3.4304 1.7408-3.7376 2.304l-37.6832 76.3392c-8.0896 16.3328-23.6544 27.648-41.6768 30.2592l-84.2752 12.2368c-0.6144 0.1024-2.56 0.3584-3.328 2.816-0.8192 2.4576 0.6144 3.7888 1.024 4.2496l60.9792 59.4432c13.056 12.6976 18.9952 31.0272 15.9232 48.9984l-14.3872 83.9168c-0.1024 0.6144-0.4096 2.56 1.6384 4.0448 2.0992 1.4848 3.7888 0.6144 4.352 0.3072l75.3664-39.6288c16.128-8.4992 35.3792-8.4992 51.5072 0l75.3664 39.6288c0.5632 0.3072 2.304 1.1776 4.352-0.3072 2.0992-1.536 1.7408-3.4304 1.6384-4.0448l-14.3872-83.9168c-3.072-17.9712 2.8672-36.2496 15.9232-48.9984l60.9792-59.4432c0.4608-0.4608 1.8432-1.792 1.024-4.2496-0.8192-2.4576-2.7136-2.7136-3.328-2.816l-84.2752-12.2368c-18.0224-2.6112-33.5872-13.9264-41.6768-30.2592l-37.6832-76.3392c-0.2048-0.5632-1.0752-2.304-3.6352-2.304z" fill="#191919" p-id="11988"></path></svg>