<?xml version="1.0" standalone="no"?><!DOCTYPE svg PUBLIC "-//W3C//DTD SVG 1.1//EN" "http://www.w3.org/Graphics/SVG/1.1/DTD/svg11.dtd"><svg t="1727103428423" class="icon" viewBox="0 0 1024 1024" version="1.1" xmlns="http://www.w3.org/2000/svg" p-id="1395" xmlns:xlink="http://www.w3.org/1999/xlink" width="256" height="256"><path d="M711.68 619.52m-256 0a256 256 0 1 0 512 0 256 256 0 1 0-512 0Z" fill="#FFD84A" p-id="1396"></path><path d="M743.68 788.48H357.12c-49.92 0-96-21.76-129.28-62.72-8.96-10.24-7.68-26.88 2.56-35.84 10.24-8.96 26.88-7.68 35.84 2.56 24.32 28.16 56.32 44.8 90.88 44.8h386.56c70.4 0 128-67.84 128-149.76V323.84c0-83.2-57.6-149.76-128-149.76H357.12c-70.4 0-128 67.84-128 149.76v48.64c0 14.08-11.52 25.6-25.6 25.6s-25.6-11.52-25.6-25.6v-48.64c0-111.36 80.64-200.96 179.2-200.96h386.56c98.56 0 179.2 89.6 179.2 200.96v263.68c0 110.08-80.64 200.96-179.2 200.96z" p-id="1397"></path><path d="M320 518.4H128c-14.08 0-25.6-11.52-25.6-25.6s11.52-25.6 25.6-25.6h192c14.08 0 25.6 11.52 25.6 25.6s-11.52 25.6-25.6 25.6zM248.32 623.36h-192c-14.08 0-25.6-11.52-25.6-25.6s11.52-25.6 25.6-25.6h192c14.08 0 25.6 11.52 25.6 25.6s-11.52 25.6-25.6 25.6zM564.48 455.68c-5.12 0-11.52-1.28-15.36-5.12L248.32 215.04c-11.52-8.96-12.8-24.32-3.84-35.84 8.96-11.52 24.32-12.8 35.84-3.84l285.44 222.72 268.8-209.92c11.52-8.96 26.88-6.4 35.84 3.84 8.96 11.52 6.4 26.88-3.84 35.84L579.84 450.56c-3.84 3.84-10.24 5.12-15.36 5.12z" p-id="1398"></path></svg>