<?xml version="1.0" standalone="no"?><!DOCTYPE svg PUBLIC "-//W3C//DTD SVG 1.1//EN" "http://www.w3.org/Graphics/SVG/1.1/DTD/svg11.dtd"><svg t="1723618611241" class="icon" viewBox="0 0 1024 1024" version="1.1" xmlns="http://www.w3.org/2000/svg" p-id="3822" xmlns:xlink="http://www.w3.org/1999/xlink" width="200" height="200"><path d="M702.714 169.142h94.858V98h-94.858v71.142z m154.144 59.286v94.858H928v-94.858h-71.142z m-59.286 154.144h-94.858v71.142h94.858v-71.142z m-154.144-59.286v-94.858h-71.142v94.858h71.142z m59.286 59.286c-32.726 0-59.286-26.56-59.286-59.286h-71.142c0 72.044 58.384 130.428 130.428 130.428v-71.142z m154.144-59.286c0 32.726-26.56 59.286-59.286 59.286v71.142c72.044 0 130.428-58.384 130.428-130.428h-71.142zM797.572 169.14c32.726 0 59.286 26.56 59.286 59.286H928C928 156.384 869.616 98 797.572 98v71.142zM702.714 98c-72.044 0-130.428 58.384-130.428 130.428h71.142c0-32.726 26.56-59.286 59.286-59.286V98zM228.428 643.428h94.858v-71.142h-94.858v71.142z m154.144 59.286v94.858h71.142v-94.858h-71.142z m-59.286 154.144h-94.858V928h94.858v-71.142zM169.14 797.572v-94.858H98v94.858h71.142z m59.286 59.286c-32.726 0-59.286-26.56-59.286-59.286H98C98 869.616 156.384 928 228.428 928v-71.142z m154.144-59.286c0 32.726-26.56 59.286-59.286 59.286V928c72.044 0 130.428-58.384 130.428-130.428h-71.142z m-59.286-154.144c32.726 0 59.286 26.56 59.286 59.286h71.142c0-72.044-58.384-130.428-130.428-130.428v71.142z m-94.858-71.142C156.384 572.286 98 630.67 98 702.714h71.142c0-32.726 26.56-59.286 59.286-59.286v-71.142z m0-403.144h94.858V98h-94.858v71.142z m154.144 59.286v94.858h71.142v-94.858h-71.142z m-59.286 154.144h-94.858v71.142h94.858v-71.142zM169.14 323.286v-94.858H98v94.858h71.142z m59.286 59.286c-32.726 0-59.286-26.56-59.286-59.286H98c0 72.044 58.384 130.428 130.428 130.428v-71.142z m154.144-59.286c0 32.726-26.56 59.286-59.286 59.286v71.142c72.044 0 130.428-58.384 130.428-130.428h-71.142zM323.286 169.14c32.726 0 59.286 26.56 59.286 59.286h71.142c0-72.044-58.384-130.428-130.428-130.428v71.142zM228.428 98C156.384 98 98 156.384 98 228.428h71.142c0-32.726 26.56-59.286 59.286-59.286V98z m474.286 545.428h94.858v-71.142h-94.858v71.142z m154.144 59.286v94.858H928v-94.858h-71.142z m-59.286 154.144h-94.858V928h94.858v-71.142z m-154.144-59.286v-94.858h-71.142v94.858h71.142z m59.286 59.286c-32.726 0-59.286-26.56-59.286-59.286h-71.142c0 72.044 58.384 130.428 130.428 130.428v-71.142z m154.144-59.286c0 32.726-26.56 59.286-59.286 59.286V928C869.616 928 928 869.616 928 797.572h-71.142z m-59.286-154.144c32.726 0 59.286 26.56 59.286 59.286H928c0-72.044-58.384-130.428-130.428-130.428v71.142z m-94.858-71.142c-72.044 0-130.428 58.384-130.428 130.428h71.142c0-32.726 26.56-59.286 59.286-59.286v-71.142z" fill="#1E2124" p-id="3823"></path></svg>