<?xml version="1.0" standalone="no"?><!DOCTYPE svg PUBLIC "-//W3C//DTD SVG 1.1//EN" "http://www.w3.org/Graphics/SVG/1.1/DTD/svg11.dtd">
<svg t="1724980459243" class="icon" viewBox="0 0 1024 1024" version="1.1"
    xmlns="http://www.w3.org/2000/svg" p-id="6608"
    xmlns:xlink="http://www.w3.org/1999/xlink" width="200" height="200">
    <path d="M856.558605 1024H167.441395A149.405961 149.405961 0 0 1 18.462308 875.092059V259.68179a149.405961 149.405961 0 0 1 148.979087-149.050233h689.11721a149.405961 149.405961 0 0 1 148.979087 149.405961V875.092059a149.405961 149.405961 0 0 1-148.979087 148.907941zM167.441395 196.006392a64.031126 64.031126 0 0 0-63.604252 64.031126V875.092059a64.031126 64.031126 0 0 0 63.604252 63.604252h689.11721a64.031126 64.031126 0 0 0 63.604252-63.604252V259.68179a64.031126 64.031126 0 0 0-63.604252-63.675398z" p-id="6609" fill="#f5cb2b"></path>
    <path d="M356.262072 290.345585a42.687417 42.687417 0 0 1-42.687418-42.687418V42.687417a42.687417 42.687417 0 0 1 85.374835 0v204.97075a42.687417 42.687417 0 0 1-42.687417 42.687418zM659.556173 290.345585a42.687417 42.687417 0 0 1-42.687417-42.687418V42.687417a42.687417 42.687417 0 0 1 85.374835 0v204.97075a42.687417 42.687417 0 0 1-42.687418 42.687418zM729.278955 532.169805H294.792191a42.687417 42.687417 0 0 1 0-85.374835h434.486764a42.687417 42.687417 0 0 1 0 85.374835zM729.278955 753.504064H294.792191a42.687417 42.687417 0 0 1 0-85.374835h434.486764a42.687417 42.687417 0 0 1 0 85.374835z" p-id="6610" fill="#f5cb2b"></path>
</svg>